<?xml version="1.0" encoding="utf-8"?>

<svg version="1.0"
	 id="katman_1" xmlns:inkscape="http://www.inkscape.org/namespaces/inkscape" xmlns:cc="http://creativecommons.org/ns#" xmlns:svg="http://www.w3.org/2000/svg" xmlns:sodipodi="http://sodipodi.sourceforge.net/DTD/sodipodi-0.dtd" xmlns:dc="http://purl.org/dc/elements/1.1/" xmlns:rdf="http://www.w3.org/1999/02/22-rdf-syntax-ns#"
	 xmlns="http://www.w3.org/2000/svg" xmlns:xlink="http://www.w3.org/1999/xlink" x="0px" y="0px" viewBox="0 0 97.8 97.8"
	 style="enable-background:new 0 0 97.8 97.8;" xml:space="preserve">
<path d="M14.75,52.78c-2.67,0-4.83-2.16-4.83-4.83c0-2.67,2.16-4.83,4.83-4.83c2.67,0,4.83,2.16,4.83,4.83
	C19.58,50.62,17.42,52.78,14.75,52.78 M26.48,65.2c-2.67,0-4.83-2.16-4.83-4.83c0-2.67,2.16-4.83,4.83-4.83s4.83,2.16,4.83,4.83
	C31.31,63.04,29.15,65.2,26.48,65.2 M38.21,77.62c-2.67,0-4.83-2.16-4.83-4.83s2.16-4.83,4.83-4.83c2.67,0,4.83,2.16,4.83,4.83
	S40.88,77.62,38.21,77.62 M49.94,90.03c-2.67,0-4.83-2.16-4.83-4.83c0-2.67,2.16-4.83,4.83-4.83s4.83,2.16,4.83,4.83
	C54.77,87.87,52.6,90.03,49.94,90.03 M61.66,77.62c-2.67,0-4.83-2.16-4.83-4.83s2.16-4.83,4.83-4.83c2.67,0,4.83,2.16,4.83,4.83
	S64.33,77.62,61.66,77.62 M73.39,65.2c-2.67,0-4.83-2.16-4.83-4.83c0-2.67,2.16-4.83,4.83-4.83s4.83,2.16,4.83,4.83
	C78.22,63.04,76.06,65.2,73.39,65.2 M85.12,52.78c-2.67,0-4.83-2.16-4.83-4.83c0-2.67,2.16-4.83,4.83-4.83
	c2.67,0,4.83,2.16,4.83,4.83C89.95,50.62,87.79,52.78,85.12,52.78 M14.5,40.34c-2.67,0-4.83-2.16-4.83-4.83
	c0-2.67,2.16-4.83,4.83-4.83c2.67,0,4.83,2.16,4.83,4.83C19.33,38.18,17.17,40.34,14.5,40.34 M26.23,52.76
	c-2.67,0-4.83-2.16-4.83-4.83c0-2.67,2.16-4.83,4.83-4.83s4.83,2.16,4.83,4.83C31.06,50.6,28.9,52.76,26.23,52.76 M37.96,65.18
	c-2.67,0-4.83-2.16-4.83-4.83s2.16-4.83,4.83-4.83c2.67,0,4.83,2.16,4.83,4.83S40.63,65.18,37.96,65.18 M49.69,77.59
	c-2.67,0-4.83-2.16-4.83-4.83c0-2.67,2.16-4.83,4.83-4.83s4.83,2.16,4.83,4.83C54.52,75.43,52.35,77.59,49.69,77.59 M61.41,65.18
	c-2.67,0-4.83-2.16-4.83-4.83s2.16-4.83,4.83-4.83c2.67,0,4.83,2.16,4.83,4.83S64.08,65.18,61.41,65.18 M73.14,52.76
	c-2.67,0-4.83-2.16-4.83-4.83c0-2.67,2.16-4.83,4.83-4.83s4.83,2.16,4.83,4.83C77.97,50.6,75.81,52.76,73.14,52.76 M84.87,40.34
	c-2.67,0-4.83-2.16-4.83-4.83c0-2.67,2.16-4.83,4.83-4.83c2.67,0,4.83,2.16,4.83,4.83C89.7,38.18,87.54,40.34,84.87,40.34
	 M14.8,27.96c-2.67,0-4.83-2.16-4.83-4.83s2.16-4.83,4.83-4.83c2.67,0,4.83,2.16,4.83,4.83S17.47,27.96,14.8,27.96 M26.53,40.38
	c-2.67,0-4.83-2.16-4.83-4.83c0-2.67,2.16-4.83,4.83-4.83s4.83,2.16,4.83,4.83C31.36,38.22,29.2,40.38,26.53,40.38 M38.26,52.8
	c-2.67,0-4.83-2.16-4.83-4.83s2.16-4.83,4.83-4.83c2.67,0,4.83,2.16,4.83,4.83S40.92,52.8,38.26,52.8 M49.98,65.21
	c-2.67,0-4.83-2.16-4.83-4.83c0-2.67,2.16-4.83,4.83-4.83s4.83,2.16,4.83,4.83C54.82,63.05,52.65,65.21,49.98,65.21 M61.71,52.8
	c-2.67,0-4.83-2.16-4.83-4.83s2.16-4.83,4.83-4.83c2.67,0,4.83,2.16,4.83,4.83S64.38,52.8,61.71,52.8 M73.44,40.38
	c-2.67,0-4.83-2.16-4.83-4.83c0-2.67,2.16-4.83,4.83-4.83c2.67,0,4.83,2.16,4.83,4.83C78.27,38.22,76.11,40.38,73.44,40.38
	 M85.17,27.96c-2.67,0-4.83-2.16-4.83-4.83s2.16-4.83,4.83-4.83c2.67,0,4.83,2.16,4.83,4.83S87.83,27.96,85.17,27.96 M14.55,15.52
	c-2.67,0-4.83-2.16-4.83-4.83s2.16-4.83,4.83-4.83c2.67,0,4.83,2.16,4.83,4.83S17.22,15.52,14.55,15.52 M26.28,27.94
	c-2.67,0-4.83-2.16-4.83-4.83c0-2.67,2.16-4.83,4.83-4.83s4.83,2.16,4.83,4.83C31.11,25.78,28.95,27.94,26.28,27.94 M38.01,40.36
	c-2.67,0-4.83-2.16-4.83-4.83c0-2.67,2.16-4.83,4.83-4.83c2.67,0,4.83,2.16,4.83,4.83C42.84,38.2,40.67,40.36,38.01,40.36
	 M49.73,52.78c-2.67,0-4.83-2.16-4.83-4.83c0-2.67,2.16-4.83,4.83-4.83s4.83,2.16,4.83,4.83C54.57,50.61,52.4,52.78,49.73,52.78
	 M61.46,40.36c-2.67,0-4.83-2.16-4.83-4.83s2.16-4.83,4.83-4.83s4.83,2.16,4.83,4.83S64.13,40.36,61.46,40.36 M73.19,27.94
	c-2.67,0-4.83-2.16-4.83-4.83c0-2.67,2.16-4.83,4.83-4.83c2.67,0,4.83,2.16,4.83,4.83C78.02,25.78,75.86,27.94,73.19,27.94
	 M84.92,15.52c-2.67,0-4.83-2.16-4.83-4.83s2.16-4.83,4.83-4.83c2.67,0,4.83,2.16,4.83,4.83S87.58,15.52,84.92,15.52"/>
</svg>
